<?xml version="1.0" encoding="utf-8"?>
<!-- Generator: Adobe Illustrator 19.2.1, SVG Export Plug-In . SVG Version: 6.00 Build 0)  -->
<svg version="1.1" id="Capa_1" xmlns="http://www.w3.org/2000/svg" xmlns:xlink="http://www.w3.org/1999/xlink" x="0px" y="0px"
	 viewBox="0 0 512 512" style="enable-background:new 0 0 512 512;" xml:space="preserve">
<style type="text/css">
	.st0{fill:#549DC2;}
	.st1{fill:#36A582;}
</style>
<g>
	<path class="st0" d="M489.8,34.9c-4.4-3.4-10.5-9.2-13.7-13.7c-6.3-8.7-18.4-20.9-36.2-21.2c-27.6-0.4-67.5,24.6-70.6,78.8
		c-3.1,54.2-37.8,134-63.4,151.4c-25.6,17.4-69.6,77.7-134,98.2c-64.4,20.4-145.3,33.8-144.2,55.2c0.8,17.3,64.3,14.1,89.3,12.1
		c5.5-0.4,5.8,0.7,0.6,2.6c-27.5,10.5-106.4,42-107.3,58.9c-1,20.5,98.2-32.7,173.9-36.8c75.7-4.1,117.1-8.7,138.6,28.1
		c0,0,4.2,6.8,12,14.5c-2,0.8-3.3,1.2-3.3,1.2c-0.7,0.2-1.3,0.8-1.5,1.5c-0.3,0.7-0.2,1.5,0.2,2.1l9.5,16.4
		c-4.6,0.7-9.4,1.8-13.4,3.5c-5.1,2.2-4.5,5.5-0.8,4.7c3.7-0.8,6.7,0.1,6.7,2c0,2,4,1.5,9.1-0.6c6-2.6,13.4-5.1,16.5-4
		c2,0.7,3.5,2,4.7,3.3c2.1,2.4-1.5,4.5-7,4.9c-4.6,0.3-10.1,1.3-14.5,3.5c-4.9,2.5-2.8,5.8,2.6,4.8c8.8-1.5,21-3,26-1.2
		c8.2,3.1,30.2,9.7,47.1,5.1c11.7-3.2,23.6-6.6,32.6-8.4c5.4-1.1,13.9-5.9,9.5-7.3c-1.7-0.6-4.3-1-8.3-1.1
		c-13.5-0.4-24.4,4.5-34.4,4c-5.5-0.2-6.7-6-2.1-9c3.3-2.2,7.7-4.4,13.3-5.7c5.4-1.2,6.9-4.8,1.5-6.2c-4.3-1.2-10.5-1.6-19.3,0.5
		c-15.3,3.6-28.3,3.5-37.2-1.2l5.2-2.8c0.7-0.4,1.1-1,1.3-1.7c0.2-0.7-0.1-1.5-0.5-2.1l-16.5-19.7c-0.4-0.5-1.1-0.8-1.8-0.9
		c-0.5,0-0.9,0.2-1.4,0.5c-0.9-16.8,5.8-40.4,33.1-62.1c40.4-32.2,76.2-50.6,87.5-96.7c11.3-46-19.9-172.4-19.9-172.4
		s-5.1-20.2-2.7-38.9c0.7-5.5,4.6-13.6,9-17c5.6-4.3,15.1-8.6,29.4-7c5.5,0.6,9.1-2.6,6.5-7.4C498.8,43.9,495.4,39.2,489.8,34.9z
		 M372.1,470.2l-26.7,14.3l-9.5-16.5c5-1.9,15.5-6.5,23.4-13.1L372.1,470.2z"/>
	<path class="st1" d="M345.9,470.7c0.2-0.5,0.8-1.2,1.5-1.7c0.9-0.5,1.6-0.4,1.9,0.1c0.5,0.8-0.2,1.6-0.9,2l-0.8,0.5l0.9,1.5
		l0.9-0.5c0.9-0.6,2-0.7,2.6,0.2c0.4,0.7,0.2,1.5-0.9,2.2c-0.9,0.5-1.9,0.7-2.4,0.7l0.6,1.8c0.7,0,1.9-0.3,3-1
		c2.3-1.4,2.9-3.4,1.9-5c-0.7-1.2-2.1-1.4-3.3-1l0,0c0.9-1.1,0.9-2.1,0.3-3.1c-0.8-1.2-2.5-1.6-4.3-0.4c-1.2,0.7-2,1.7-2.3,2.4
		L345.9,470.7z"/>
	<path class="st1" d="M355.2,464.2c1-0.6,1.8-0.3,2.3,0.4c0.6,1.1,0.3,2.7-0.6,5.6l-0.5,1.7l0.8,1.3l6.3-4l-1.1-1.7l-3.4,2.1l0,0
		l0.4-1.2c0.6-2,0.9-3.8,0-5.4c-1-1.6-2.8-2.1-4.9-0.8c-1.2,0.7-2,1.8-2.3,2.7l1.5,1.1C354,465.5,354.4,464.7,355.2,464.2z"/>
</g>
</svg>
