<?xml version="1.0" encoding="utf-8"?>
<!-- Generator: Adobe Illustrator 19.2.1, SVG Export Plug-In . SVG Version: 6.00 Build 0)  -->
<svg version="1.1" id="Capa_1" xmlns="http://www.w3.org/2000/svg" xmlns:xlink="http://www.w3.org/1999/xlink" x="0px" y="0px"
	 viewBox="0 0 512 256" style="enable-background:new 0 0 512 256;" xml:space="preserve">
<style type="text/css">
	.st0{fill:#E35755;}
</style>
<path class="st0" d="M504.5,24.3h-88.7v-8.5c0-4.2-3.4-7.5-7.5-7.5s-7.5,3.4-7.5,7.5v8.5h-88.7c-4.2,0-7.5,3.4-7.5,7.5
	s3.4,7.5,7.5,7.5h88.7v10.3c-9.3,3.1-16,12-16,22.3v8.5h-42.3c-3.1-9.3-12-16-22.3-16H191.9c-10.4,0-19.2,6.7-22.3,16h-42.3v-8.5
	c0-10.4-6.7-19.2-16-22.3V39.3H200c4.2,0,7.5-3.4,7.5-7.5s-3.4-7.5-7.5-7.5h-88.7v-8.5c0-4.2-3.4-7.5-7.5-7.5
	c-4.2,0-7.5,3.4-7.5,7.5v8.5H7.5c-4.2,0-7.5,3.4-7.5,7.5s3.4,7.5,7.5,7.5h88.7v10.3c-9.3,3.1-16,12-16,22.3V104
	c0,13,10.6,23.5,23.5,23.5s23.5-10.6,23.5-23.5v-8.5h42.3c3.1,9.3,12,16,22.3,16h8.5v25.1c-13.5,1-25,10.5-28.4,23.8l-18.1,72.3
	h-10.2c-4.2,0-7.5,3.4-7.5,7.5s3.4,7.5,7.5,7.5h16l0,0l0,0h16c4.2,0,7.5-3.4,7.5-7.5s-3.4-7.5-7.5-7.5h-6.4l17.2-68.6
	c1.8-7,7.9-12.1,15-12.5c3.2,9.3,12,16,22.3,16h64.1c10.3,0,19.1-6.7,22.3-16c7.2,0.4,13.3,5.4,15,12.5l17.2,68.6h-6.4
	c-4.2,0-7.5,3.4-7.5,7.5s3.4,7.5,7.5,7.5h16l0,0l0,0h16c4.2,0,7.5-3.4,7.5-7.5s-3.4-7.5-7.5-7.5h-10.2L340,160.4
	c-3.3-13.3-14.8-22.9-28.4-23.8v-25.1h8.5c10.4,0,19.2-6.7,22.3-16h42.3v8.5c0,13,10.6,23.5,23.5,23.5s23.5-10.6,23.5-23.5V71.9
	c0-10.4-6.7-19.2-16-22.3V39.3h88.7c4.2,0,7.5-3.4,7.5-7.5S508.6,24.3,504.5,24.3z M112.2,104c0,4.7-3.8,8.5-8.5,8.5
	s-8.5-3.8-8.5-8.5V71.9c0-4.7,3.8-8.5,8.5-8.5s8.5,3.8,8.5,8.5V104z M320.1,96.4h-16h-16c-4.2,0-7.5,3.4-7.5,7.5
	c0,4.2,3.4,7.5,7.5,7.5h8.5V144c0,4.7-3.8,8.5-8.5,8.5H224c-4.7,0-8.5-3.8-8.5-8.5v-32.6H256c4.2,0,7.5-3.4,7.5-7.5
	c0-4.2-3.4-7.5-7.5-7.5h-48.1h-16c-4.7,0-8.5-3.8-8.5-8.5s3.8-8.5,8.5-8.5h128.3c4.7,0,8.5,3.8,8.5,8.5
	C328.6,92.6,324.8,96.4,320.1,96.4z M416.8,104c0,4.7-3.8,8.5-8.5,8.5s-8.5-3.8-8.5-8.5V71.9c0-4.7,3.8-8.5,8.5-8.5s8.5,3.8,8.5,8.5
	V104z"/>
</svg>
