<?xml version="1.0" encoding="utf-8"?>
<!-- Generator: Adobe Illustrator 19.2.1, SVG Export Plug-In . SVG Version: 6.00 Build 0)  -->
<svg version="1.1" id="Layer_1" xmlns="http://www.w3.org/2000/svg" xmlns:xlink="http://www.w3.org/1999/xlink" x="0px" y="0px"
	 viewBox="0 0 100 63.5" style="enable-background:new 0 0 100 63.5;" xml:space="preserve">
<style type="text/css">
	.st0{fill:#2C2C2C;}
</style>
<path class="st0" d="M81.9,48.4l0.1,0.7c0,0,0,0-2.9,0.9c-2.4,0.5-33.9-13.3-33.9-13.3s-0.3,0-0.6,0.1S42,37.1,38,38.1
	s-12,2.7-12,2.7l8.7,16.9l-6.6,1.2l-4.7-9.6L23,49.2c0,0-0.5,0.2-1.7,0.5s-2.9,0.4-2.9,0.4L18,42.5c0,0-5,4.3-6.1,5
	c-1.1,0.6-7,0.7-7,0.7l9.1-6.9l-2.5-0.6c0,0-0.6-0.6-0.5-1.8c0.5-0.3,4.5-2.5,4.5-2.5l0.1-1.3c0,0,1-0.4,2.3-0.4
	c1.4,0,1.1-0.2,3.1-1s3.9-0.9,5.9-0.9s10.1-2,10.1-2S6,6.6,5.3,6.1s1.5-1.6,2.4-1.7s1.4-0.3,2.5,0.3c1.1,0.5,38,23.7,38,23.7
	s7.9-1.5,9.9-1.9c2-0.4,19.4-6.6,23.9-6.8c4.6-0.2,10.2,3.5,11.7,4.4c1.5,1,1.6,2.1,1.1,2.7s-1.8,1.8-2.5,2.3
	c-0.4,0.3-1.1,0.6-2,0.7c0.7,0.3,0.8,2.7-0.4,3.4c-1.2,0.7-2.9,0.7-4.4-2.1c-0.3-0.1-0.4,0.6-0.7,0.8c-0.2,0.2-6.4,0.3-11.9,0.6
	S58.5,34,58.5,34C60.4,36.4,81.8,48.4,81.9,48.4z"/>
</svg>
