<?xml version="1.0" encoding="utf-8"?>
<!-- Generator: Adobe Illustrator 19.2.1, SVG Export Plug-In . SVG Version: 6.00 Build 0)  -->
<svg version="1.1" id="Capa_1" xmlns="http://www.w3.org/2000/svg" xmlns:xlink="http://www.w3.org/1999/xlink" x="0px" y="0px"
	 viewBox="0 0 512 311" style="enable-background:new 0 0 512 311;" xml:space="preserve">
<style type="text/css">
	.st0{fill:#36A582;}
</style>
<path class="st0" d="M511.5,11.7c-0.9-2-2.9-3.2-5.1-3.2L5.3,23.4c-2.2,0.1-4.1,1.4-4.9,3.4c-0.8,2-0.4,4.3,1,5.9l89.8,96.7v88.8
	c0,2.4,1.5,4.5,3.8,5.2c0.6,0.2,1.1,0.3,1.7,0.3c0.7,0,1.3-0.1,2-0.4l58.7-22.7l92.1,99.1c1,1.1,2.5,1.8,4,1.8c0,0,0,0,0,0
	c1.5,0,3-0.7,4-1.8l253-282C512.1,16,512.4,13.7,511.5,11.7z M258.1,110V89.5l158.6-44.6L258.1,110z M252.5,79.7L48.6,33.1
	l413.4-12.3L252.5,79.7z M230.4,85.9L99.9,122.5L21.6,38.2L230.4,85.9z M102.2,133.3l144.9-40.7v22L131.7,162
	c-0.9,0.4-1.8,1-2.4,1.9l-27.1,37.4L102.2,133.3L102.2,133.3z M270.5,116.8l-20.9,166.8L143.1,169.1L270.5,116.8z M282.1,112
	l204.3-83.9L261.1,279.3L282.1,112z M112.1,206.3l22.2-30.7l15.1,16.3L112.1,206.3z"/>
</svg>
